<svg width="32" height="32" viewBox="0 0 32 32" fill="none" xmlns="http://www.w3.org/2000/svg">
<path d="M24.9156 14.8889H17.1111V7.0845C17.1111 6.78981 16.994 6.5072 16.7857 6.29883C16.5773 6.09045 16.2947 5.97339 16 5.97339C15.7053 5.97339 15.4227 6.09045 15.2143 6.29883C15.0059 6.5072 14.8889 6.78981 14.8889 7.0845V14.8889H7.08444C6.78975 14.8889 6.50714 15.006 6.29876 15.2144C6.09039 15.4228 5.97333 15.7054 5.97333 16.0001C5.97333 16.2947 6.09039 16.5774 6.29876 16.7857C6.50714 16.9941 6.78975 17.1112 7.08444 17.1112H14.8889V24.9156C14.8889 25.2103 15.0059 25.4929 15.2143 25.7013C15.4227 25.9097 15.7053 26.0267 16 26.0267C16.2947 26.0267 16.5773 25.9097 16.7857 25.7013C16.994 25.4929 17.1111 25.2103 17.1111 24.9156V17.1112H24.9156C25.2102 17.1112 25.4929 16.9941 25.7012 16.7857C25.9096 16.5774 26.0267 16.2947 26.0267 16.0001C26.0267 15.7054 25.9096 15.4228 25.7012 15.2144C25.4929 15.006 25.2102 14.8889 24.9156 14.8889V14.8889Z" fill="#F8FBFB"/>
</svg>
